<svg 
    xmlns="http://www.w3.org/2000/svg"
    viewBox="0 0 272 199"
    preserveAspectRatio="xMidYMid meet"
    style="shape-rendering:geometricPrecision; text-rendering:geometricPrecision; image-rendering:optimizeQuality; fill-rule:evenodd; clip-rule:evenodd"
>
    <g>
        <path fill="#f6f8f7" d="M 236.5,-0.5 C 237.833,-0.5 239.167,-0.5 240.5,-0.5C 250.5,10.1667 260.833,20.5 271.5,30.5C 271.5,31.5 271.5,32.5 271.5,33.5C 216.86,88.473 162.194,143.473 107.5,198.5C 106.167,198.5 104.833,198.5 103.5,198.5C 103.027,197.094 102.027,196.427 100.5,196.5C 66.473,163.14 32.8063,129.473 -0.5,95.5C -0.5,94.1667 -0.5,92.8333 -0.5,91.5C 10.1779,80.822 21.1779,70.4887 32.5,60.5C 56.6238,83.123 80.2905,106.29 103.5,130C 104.094,130.464 104.761,130.631 105.5,130.5C 149.784,87.8828 193.451,44.5495 236.5,0.5C 236.5,0.166667 236.5,-0.166667 236.5,-0.5 Z"/>
    </g>
    <g>
        <path fill="#b5ded1" d="M 236.5,0.5 C 193.451,44.5495 149.784,87.8828 105.5,130.5C 148.549,86.4505 192.216,43.1172 236.5,0.5 Z"/>
    </g>
    <g>
        <path fill="#96d3c1" d="M 100.5,196.5 C 102.027,196.427 103.027,197.094 103.5,198.5C 102.833,198.5 102.167,198.5 101.5,198.5C 101.167,197.833 100.833,197.167 100.5,196.5 Z"/>
    </g>
</svg>
