<svg width="264" height="52" fill="none" xmlns="http://www.w3.org/2000/svg"><path fill-rule="evenodd" clip-rule="evenodd" d="M.735 26.212c0 14.194 11.507 25.702 25.703 25.702 14.194 0 25.702-11.508 25.702-25.703C52.14 12.018 40.632.51 26.437.51S.735 12.017.735 26.212zm16.108.147c-1.323-1.397-3.877-1.157-3.767.764.427 7.443 6.808 13.131 14.252 12.704 7.443-.427 13.131-6.807 12.704-14.251-.07-1.233-1.705-1.384-2.447-.397a13.563 13.563 0 01-10.09 5.407 13.563 13.563 0 01-10.652-4.227z" fill="#EC5931"/><path d="M96.895 21.585c-.25-1.713-.946-2.998-2.088-3.854-1.106-.892-2.516-1.338-4.229-1.338-.785 0-1.624.142-2.516.428-.892.25-1.713.75-2.462 1.499-.75.713-1.374 1.73-1.874 3.051-.5 1.285-.75 2.98-.75 5.085 0 1.143.126 2.285.375 3.427.286 1.142.714 2.159 1.285 3.05a7.509 7.509 0 002.302 2.196c.928.535 2.052.803 3.372.803 1.785 0 3.248-.554 4.39-1.66 1.178-1.106 1.91-2.659 2.195-4.657h6.102c-.571 3.604-1.945 6.37-4.122 8.297-2.14 1.892-4.996 2.837-8.565 2.837-2.177 0-4.104-.357-5.781-1.07-1.642-.75-3.033-1.749-4.175-2.998-1.142-1.285-2.017-2.801-2.623-4.55-.572-1.749-.857-3.64-.857-5.675 0-2.07.285-4.014.857-5.834.57-1.82 1.427-3.39 2.569-4.711 1.142-1.356 2.552-2.41 4.229-3.159 1.713-.785 3.712-1.177 5.996-1.177 1.605 0 3.122.214 4.55.642 1.463.393 2.748 1 3.854 1.82a9.701 9.701 0 012.784 3.105c.713 1.25 1.142 2.73 1.284 4.443h-6.102zM131.137 33.844c0 .75.089 1.285.267 1.606.215.32.607.481 1.178.481h.642c.25 0 .536-.035.857-.106v4.228c-.214.072-.5.143-.857.215-.321.107-.66.196-1.017.267a11.06 11.06 0 01-1.98.214c-1.249 0-2.284-.25-3.105-.75-.821-.499-1.356-1.373-1.606-2.622-1.213 1.177-2.712 2.034-4.497 2.57-1.748.535-3.444.802-5.085.802-1.249 0-2.445-.178-3.587-.535a9.635 9.635 0 01-3.051-1.445 7.965 7.965 0 01-2.088-2.516c-.499-1.035-.749-2.23-.749-3.587 0-1.713.303-3.105.91-4.175.642-1.071 1.463-1.91 2.462-2.516a10.98 10.98 0 013.426-1.285 36.17 36.17 0 013.855-.642 26.632 26.632 0 013.158-.429c.999-.107 1.873-.267 2.623-.482.785-.214 1.392-.535 1.82-.963.464-.464.696-1.142.696-2.034 0-.785-.196-1.428-.589-1.927a3.307 3.307 0 00-1.392-1.125 4.923 4.923 0 00-1.82-.535c-.678-.107-1.32-.16-1.927-.16-1.713 0-3.123.357-4.229 1.07-1.106.714-1.731 1.82-1.874 3.32h-6.102c.107-1.785.535-3.266 1.285-4.444a8.969 8.969 0 012.837-2.837c1.178-.714 2.498-1.213 3.961-1.499a23.425 23.425 0 014.497-.428c1.356 0 2.694.143 4.015.428 1.32.286 2.498.75 3.533 1.392a7.54 7.54 0 012.569 2.516c.643 1 .964 2.23.964 3.694v14.239zm-6.103-7.709c-.928.607-2.07.982-3.426 1.124a39.663 39.663 0 00-4.068.536c-.643.107-1.267.267-1.874.481a4.858 4.858 0 00-1.606.803c-.464.322-.838.768-1.124 1.339-.25.535-.375 1.195-.375 1.98 0 .678.197 1.25.589 1.713.393.464.857.84 1.392 1.125.571.25 1.178.428 1.82.535.678.107 1.285.16 1.82.16.678 0 1.41-.089 2.195-.267a6.977 6.977 0 002.195-.91 5.886 5.886 0 001.766-1.606c.464-.678.696-1.499.696-2.463v-4.55zM142.307 31.114c.178 1.784.856 3.033 2.034 3.747s2.587 1.07 4.229 1.07c.571 0 1.213-.035 1.927-.106a9.418 9.418 0 002.088-.536c.642-.25 1.16-.607 1.552-1.07.428-.5.625-1.142.589-1.928-.036-.785-.321-1.427-.856-1.927-.536-.5-1.232-.892-2.088-1.177-.821-.322-1.767-.59-2.837-.803a135.581 135.581 0 01-3.266-.696 32.39 32.39 0 01-3.319-.91 11.194 11.194 0 01-2.837-1.446 6.86 6.86 0 01-1.98-2.302c-.5-.963-.75-2.14-.75-3.533 0-1.498.357-2.747 1.071-3.747a8.364 8.364 0 012.783-2.462 12.024 12.024 0 013.748-1.338 22.446 22.446 0 013.961-.375c1.427 0 2.783.16 4.068.482 1.321.285 2.498.767 3.533 1.445a8.174 8.174 0 012.623 2.676c.714 1.071 1.16 2.374 1.339 3.908h-6.371c-.285-1.463-.963-2.444-2.034-2.944-1.035-.5-2.23-.75-3.586-.75a13.6 13.6 0 00-1.553.108 6.672 6.672 0 00-1.659.428c-.5.178-.928.464-1.285.856-.357.357-.535.84-.535 1.446 0 .75.249 1.356.749 1.82.535.464 1.213.856 2.034 1.177.857.286 1.82.536 2.891.75 1.071.214 2.177.446 3.319.696a33.96 33.96 0 013.265.91c1.071.357 2.017.839 2.837 1.445a6.643 6.643 0 012.035 2.302c.535.928.803 2.07.803 3.426 0 1.642-.375 3.033-1.125 4.175a8.794 8.794 0 01-2.944 2.784c-1.177.714-2.498 1.231-3.961 1.552a20.18 20.18 0 01-4.336.482c-1.749 0-3.373-.196-4.871-.589-1.464-.392-2.748-.98-3.855-1.766a9.43 9.43 0 01-2.569-2.998c-.607-1.213-.928-2.64-.964-4.282h6.103zM165.462 1.779h6.103v14.185h.107c.749-1.249 1.855-2.284 3.319-3.104 1.498-.857 3.158-1.285 4.978-1.285 3.033 0 5.424.785 7.173 2.355 1.749 1.57 2.623 3.926 2.623 7.066V40h-6.102V22.602c-.072-2.177-.536-3.747-1.392-4.71-.857-1-2.195-1.5-4.015-1.5-1.035 0-1.963.197-2.784.59a5.626 5.626 0 00-2.087 1.552c-.571.642-1.017 1.41-1.339 2.302a8.316 8.316 0 00-.481 2.837V40h-6.103V1.779zM215.204 23.726a9.284 9.284 0 00-.642-2.783 6.518 6.518 0 00-1.392-2.302 6.051 6.051 0 00-2.141-1.606c-.821-.428-1.749-.642-2.784-.642-1.07 0-2.052.196-2.944.588a6.51 6.51 0 00-2.248 1.553 8 8 0 00-1.499 2.302 8.518 8.518 0 00-.589 2.89h14.239zm-14.239 4.015c0 1.07.143 2.106.428 3.105.321 1 .785 1.874 1.392 2.623.607.75 1.374 1.356 2.302 1.82.928.428 2.034.642 3.319.642 1.784 0 3.212-.374 4.282-1.124 1.107-.785 1.927-1.945 2.463-3.48h5.781c-.321 1.5-.874 2.838-1.659 4.016a11.943 11.943 0 01-2.838 2.997 12.079 12.079 0 01-3.747 1.767 14.135 14.135 0 01-4.282.642c-2.177 0-4.104-.357-5.782-1.07-1.677-.714-3.104-1.713-4.282-2.998-1.142-1.285-2.016-2.82-2.623-4.604-.571-1.784-.857-3.747-.857-5.888 0-1.963.304-3.819.91-5.567.643-1.785 1.535-3.337 2.677-4.658a12.92 12.92 0 014.229-3.212c1.642-.785 3.497-1.177 5.567-1.177 2.177 0 4.122.464 5.835 1.392 1.749.892 3.194 2.087 4.336 3.586 1.142 1.5 1.963 3.23 2.463 5.193.535 1.927.678 3.925.428 5.995h-20.342zM223.43 12.324h6.477l5.407 20.663h.107l5.193-20.663h6.156l4.978 20.663h.107l5.621-20.663h6.21L255.014 40h-6.264l-5.139-20.556h-.107L238.419 40h-6.424l-8.565-27.676z" fill="#000"/></svg>